PathFileType	4	(X/Y/Z)	 2.6Hz3min.trc
DataRate	CameraRate	NumFrames	NumMarkers	Units	OrigDataRate	OrigDataStartFrame	OrigNumFrames
200	200	8	43	m	200	626	1000
Frame#	Time	C7			LSH			RSH			MAN			RASI			LASI			HIPR			HIPL			RPSI			LPSI			COX			RTHI1			RTHI2			RTHI3			RTHI4			RLKN			RMKN			RSHA1			RSHA2			RSHA3			RSHA4			RLMAL			RMMAL			RHEEL			RMET5			RMET1			RTOE			LTHI1			LTHI2			LTHI3			LTHI4			LLKN			LMKN			LSHA1			LSHA2			LSHA3			LSHA4			LLMAL			LMMAL			LHEEL			LMET5			LMET1			LTOE			
		X1	Y1	Z1	X2	Y2	Z2	X3	Y3	Z3	X4	Y4	Z4	X5	Y5	Z5	X6	Y6	Z6	X7	Y7	Z7	X8	Y8	Z8	X9	Y9	Z9	X10	Y10	Z10	X11	Y11	Z11	X12	Y12	Z12	X13	Y13	Z13	X14	Y14	Z14	X15	Y15	Z15	X16	Y16	Z16	X17	Y17	Z17	X18	Y18	Z18	X19	Y19	Z19	X20	Y20	Z20	X21	Y21	Z21	X22	Y22	Z22	X23	Y23	Z23	X24	Y24	Z24	X25	Y25	Z25	X26	Y26	Z26	X27	Y27	Z27	X28	Y28	Z28	X29	Y29	Z29	X30	Y30	Z30	X31	Y31	Z31	X32	Y32	Z32	X33	Y33	Z33	X34	Y34	Z34	X35	Y35	Z35	X36	Y36	Z36	X37	Y37	Z37	X38	Y38	Z38	X39	Y39	Z39	X40	Y40	Z40	X41	Y41	Z41	X42	Y42	Z42	X43	Y43	Z43	
626	3.1300	-0.150944	1.525948	-0.555042	-0.076335	1.485842	-0.762707	-0.056415	1.476330	-0.352049	-0.013833	1.441979	-0.557288	-0.064733	0.988389	-0.436880	-0.068269	0.994373	-0.675224	-0.152926	1.039207	-0.385171	-0.157412	1.029373	-0.718715	-0.251387	1.028899	-0.502578	-0.246490	1.029747	-0.605895	-0.252324	1.027163	-0.553368	-0.154428	0.723694	-0.349255	-0.147258	0.664090	-0.345588	-0.082843	0.668500	-0.339261	-0.081563	0.730060	-0.342972	-0.131575	0.470991	-0.346335	-0.122702	0.454386	-0.475787	-0.239451	0.335118	-0.327917	-0.261560	0.298999	-0.331674	-0.206369	0.273691	-0.329786	-0.191091	0.310271	-0.330450	-0.322382	0.109972	-0.344621	-0.288790	0.106452	-0.435204	-0.381798	0.084471	-0.391370	-0.224069	0.029221	-0.308611	-0.173844	0.042942	-0.389180	-0.146964	0.032764	-0.382069	-0.144008	0.731636	-0.748185	-0.131875	0.671103	-0.751335	-0.067635	0.678454	-0.759194	-0.072441	0.738351	-0.757560	-0.107439	0.465782	-0.745409	-0.086553	0.452157	-0.621313	-0.205277	0.314506	-0.763820	-0.218591	0.271624	-0.758398	-0.167915	0.255355	-0.750444	-0.149067	0.291514	-0.754681	-0.262557	0.096127	-0.752615	-0.250609	0.097019	-0.658877	-0.334843	0.071679	-0.712416	-0.159494	0.027256	-0.771181	-0.128309	0.043547	-0.688549	-0.101965	0.032180	-0.685966	
627	3.1350	-0.150962	1.528725	-0.555062	-0.076418	1.489264	-0.762811	-0.056439	1.479218	-0.352050	-0.013759	1.445262	-0.557398	-0.064219	0.991418	-0.437076	-0.067619	0.997024	-0.675483	-0.151979	1.042331	-0.385642	-0.156170	1.032317	-0.718977	-0.250788	1.031804	-0.503032	-0.245721	1.032576	-0.606287	-0.251651	1.030034	-0.553818	-0.155117	0.726721	-0.349408	-0.148234	0.667077	-0.345724	-0.083809	0.671207	-0.339234	-0.082246	0.732746	-0.342923	-0.133315	0.473820	-0.346223	-0.124551	0.457177	-0.475735	-0.240257	0.337223	-0.327596	-0.262140	0.301002	-0.331295	-0.206768	0.275987	-0.329536	-0.191747	0.312673	-0.330207	-0.321937	0.111511	-0.344242	-0.288249	0.108025	-0.434727	-0.381104	0.086392	-0.390984	-0.223822	0.029494	-0.308718	-0.173785	0.042991	-0.389108	-0.146997	0.032762	-0.382066	-0.144717	0.734292	-0.748169	-0.132981	0.673680	-0.751282	-0.068671	0.680644	-0.759212	-0.073114	0.740566	-0.757609	-0.109342	0.468060	-0.745358	-0.089035	0.454605	-0.620967	-0.206356	0.316165	-0.763765	-0.219442	0.273204	-0.758338	-0.168676	0.257194	-0.750506	-0.150012	0.293451	-0.754752	-0.262318	0.097220	-0.752819	-0.250226	0.098171	-0.659094	-0.334414	0.073065	-0.712461	-0.159395	0.027370	-0.771044	-0.128263	0.043570	-0.688636	-0.101986	0.032191	-0.686001	
628	3.1400	-0.150954	1.531683	-0.555088	-0.076474	1.492884	-0.762915	-0.056457	1.482332	-0.352040	-0.013682	1.448749	-0.557506	-0.063726	0.994653	-0.437295	-0.066998	0.999840	-0.675742	-0.150998	1.045641	-0.386148	-0.154902	1.035453	-0.719238	-0.250201	1.034949	-0.503502	-0.244957	1.035627	-0.606701	-0.250988	1.033142	-0.554303	-0.155794	0.729966	-0.349534	-0.149186	0.670290	-0.345829	-0.084758	0.674146	-0.339201	-0.082918	0.735661	-0.342865	-0.135012	0.476903	-0.346091	-0.126393	0.460235	-0.475688	-0.241011	0.339554	-0.327268	-0.262645	0.303212	-0.330907	-0.207105	0.278539	-0.329258	-0.192343	0.315350	-0.329907	-0.321401	0.113266	-0.343853	-0.287577	0.109794	-0.434202	-0.380274	0.088548	-0.390596	-0.223543	0.029804	-0.308847	-0.173684	0.043046	-0.389018	-0.147032	0.032744	-0.382073	-0.145395	0.737158	-0.748186	-0.134052	0.676478	-0.751303	-0.069668	0.683053	-0.759234	-0.073759	0.742990	-0.757650	-0.111202	0.470533	-0.745298	-0.091427	0.457267	-0.620617	-0.207401	0.318025	-0.763678	-0.220249	0.274982	-0.758243	-0.169395	0.259225	-0.750566	-0.150912	0.295597	-0.754826	-0.262007	0.098513	-0.752996	-0.249736	0.099519	-0.659300	-0.333891	0.074681	-0.712423	-0.159280	0.027526	-0.770867	-0.128191	0.043598	-0.688730	-0.101994	0.032208	-0.686046	
629	3.1450	-0.150942	1.534814	-0.555137	-0.076497	1.496676	-0.763015	-0.056466	1.485640	-0.352022	-0.013590	1.452394	-0.557608	-0.063264	0.998068	-0.437538	-0.066408	1.002794	-0.675996	-0.149994	1.049146	-0.386691	-0.153621	1.038782	-0.719494	-0.249631	1.038310	-0.503987	-0.244209	1.038870	-0.607138	-0.250342	1.036460	-0.554821	-0.156448	0.733398	-0.349622	-0.150094	0.673693	-0.345901	-0.085672	0.677290	-0.339163	-0.083564	0.738782	-0.342805	-0.136627	0.480222	-0.345934	-0.128161	0.463520	-0.475658	-0.241697	0.342097	-0.326955	-0.263101	0.305660	-0.330534	-0.207371	0.281329	-0.328933	-0.192852	0.318268	-0.329545	-0.320747	0.115210	-0.343445	-0.286746	0.111768	-0.433650	-0.379306	0.090928	-0.390229	-0.223235	0.030144	-0.309001	-0.173556	0.043106	-0.388931	-0.147057	0.032730	-0.382074	-0.146027	0.740194	-0.748247	-0.135045	0.679480	-0.751368	-0.070600	0.685659	-0.759256	-0.074353	0.745609	-0.757685	-0.112981	0.473187	-0.745235	-0.093658	0.460123	-0.620310	-0.208387	0.320072	-0.763565	-0.220988	0.276956	-0.758118	-0.170042	0.261446	-0.750634	-0.151743	0.297936	-0.754916	-0.261619	0.100000	-0.753154	-0.249120	0.101054	-0.659493	-0.333272	0.076539	-0.712327	-0.159144	0.027727	-0.770653	-0.128092	0.043633	-0.688831	-0.101987	0.032230	-0.686099	
630	3.1500	-0.150872	1.538086	-0.555182	-0.076487	1.500601	-0.763117	-0.056464	1.489112	-0.352005	-0.013484	1.456154	-0.557704	-0.062838	1.001627	-0.437803	-0.065858	1.005862	-0.676243	-0.148985	1.052838	-0.387270	-0.152331	1.042294	-0.719732	-0.249085	1.041853	-0.504471	-0.243485	1.042284	-0.607592	-0.249722	1.039976	-0.555366	-0.157069	0.736980	-0.349677	-0.150955	0.677257	-0.345927	-0.086540	0.680611	-0.339122	-0.084181	0.742075	-0.342738	-0.138140	0.483755	-0.345764	-0.129804	0.466989	-0.475637	-0.242306	0.344851	-0.326648	-0.263497	0.308259	-0.330249	-0.207552	0.284350	-0.328565	-0.193300	0.321395	-0.329178	-0.319974	0.117348	-0.343040	-0.285752	0.113912	-0.433061	-0.378191	0.093509	-0.389864	-0.222884	0.030526	-0.309175	-0.173397	0.043174	-0.388848	-0.147071	0.032721	-0.382071	-0.146597	0.743373	-0.748359	-0.135947	0.682630	-0.751514	-0.071447	0.688437	-0.759282	-0.074881	0.748401	-0.757714	-0.114646	0.476007	-0.745188	-0.095676	0.463132	-0.620029	-0.209287	0.322287	-0.763438	-0.221645	0.279093	-0.757972	-0.170593	0.263845	-0.750725	-0.152489	0.300436	-0.755017	-0.261140	0.101666	-0.753291	-0.248382	0.102765	-0.659692	-0.332552	0.078629	-0.712188	-0.158985	0.027972	-0.770406	-0.127971	0.043674	-0.688934	-0.101967	0.032258	-0.686159	
631	3.1550	-0.150748	1.541487	-0.555235	-0.076435	1.504619	-0.763208	-0.056446	1.492714	-0.351992	-0.013365	1.460003	-0.557795	-0.062456	1.005301	-0.438091	-0.065357	1.009021	-0.676485	-0.147998	1.056706	-0.387893	-0.151041	1.045971	-0.719938	-0.248571	1.045570	-0.504961	-0.242792	1.045840	-0.608070	-0.249132	1.043654	-0.555915	-0.157657	0.740678	-0.349697	-0.151762	0.680940	-0.345913	-0.087351	0.684071	-0.339075	-0.084763	0.745510	-0.342664	-0.139541	0.487464	-0.345581	-0.131281	0.470586	-0.475614	-0.242831	0.347777	-0.326333	-0.263787	0.311028	-0.329962	-0.207659	0.287561	-0.328159	-0.193652	0.324711	-0.328753	-0.319070	0.119640	-0.342637	-0.284588	0.116197	-0.432438	-0.376942	0.096277	-0.389535	-0.222491	0.030953	-0.309368	-0.173217	0.043236	-0.388781	-0.147059	0.032729	-0.382065	-0.147094	0.746664	-0.748524	-0.136751	0.685886	-0.751688	-0.072193	0.691365	-0.759320	-0.075342	0.751334	-0.757742	-0.116176	0.478961	-0.745150	-0.097444	0.466255	-0.619801	-0.210087	0.324658	-0.763303	-0.222200	0.281393	-0.757816	-0.171037	0.266394	-0.750838	-0.153139	0.303079	-0.755132	-0.260564	0.103502	-0.753423	-0.247521	0.104631	-0.659899	-0.331721	0.080916	-0.712021	-0.158796	0.028260	-0.770130	-0.127827	0.043721	-0.689040	-0.101934	0.032291	-0.686229	
632	3.1600	-0.150570	1.545001	-0.555299	-0.076343	1.508700	-0.763293	-0.056411	1.496418	-0.351989	-0.013237	1.463915	-0.557883	-0.062122	1.009053	-0.438399	-0.064911	1.012249	-0.676723	-0.147056	1.060729	-0.388554	-0.149770	1.049795	-0.720115	-0.248087	1.049427	-0.505456	-0.242136	1.049513	-0.608562	-0.248573	1.047467	-0.556470	-0.158212	0.744455	-0.349680	-0.152509	0.684707	-0.345864	-0.088103	0.687632	-0.339012	-0.085307	0.749053	-0.342585	-0.140829	0.491307	-0.345384	-0.132569	0.474270	-0.475587	-0.243275	0.350859	-0.325995	-0.263977	0.313925	-0.329704	-0.207689	0.290933	-0.327723	-0.193917	0.328178	-0.328291	-0.318010	0.122048	-0.342233	-0.283245	0.118601	-0.431782	-0.375561	0.099204	-0.389222	-0.222062	0.031421	-0.309580	-0.173018	0.043297	-0.388729	-0.147022	0.032751	-0.382056	-0.147515	0.750022	-0.748740	-0.137432	0.689248	-0.751913	-0.072822	0.694414	-0.759373	-0.075727	0.754389	-0.757776	-0.117566	0.482022	-0.745118	-0.098937	0.469464	-0.619617	-0.210776	0.327163	-0.763168	-0.222643	0.283826	-0.757658	-0.171367	0.269080	-0.750979	-0.153677	0.305850	-0.755281	-0.259883	0.105496	-0.753556	-0.246521	0.106631	-0.660134	-0.330766	0.083386	-0.711837	-0.158571	0.028582	-0.769836	-0.127662	0.043776	-0.689149	-0.101890	0.032328	-0.686309	
633	3.1650	-0.150336	1.548599	-0.555376	-0.076198	1.512825	-0.763363	-0.056356	1.500200	-0.352005	-0.013098	1.467862	-0.557962	-0.061841	1.012849	-0.438724	-0.064517	1.015526	-0.676957	-0.146170	1.064893	-0.389250	-0.148545	1.053743	-0.720250	-0.247641	1.053400	-0.505952	-0.241527	1.053281	-0.609070	-0.248050	1.051390	-0.557020	-0.158730	0.748280	-0.349639	-0.153196	0.688520	-0.345787	-0.088792	0.691264	-0.338937	-0.085815	0.752671	-0.342502	-0.142011	0.495242	-0.345177	-0.133654	0.477985	-0.475544	-0.243643	0.354077	-0.325624	-0.264087	0.316964	-0.329436	-0.207627	0.294396	-0.327263	-0.194107	0.331744	-0.327823	-0.316773	0.124554	-0.341818	-0.281718	0.121099	-0.431094	-0.374038	0.102250	-0.388902	-0.221588	0.031926	-0.309806	-0.172809	0.043364	-0.388696	-0.146953	0.032800	-0.382036	-0.147860	0.753427	-0.749003	-0.137984	0.692639	-0.752186	-0.073338	0.697550	-0.759438	-0.076036	0.757533	-0.757826	-0.118803	0.485177	-0.745111	-0.100151	0.472752	-0.619498	-0.211341	0.329782	-0.763042	-0.222966	0.286369	-0.757510	-0.171571	0.271883	-0.751154	-0.154090	0.308733	-0.755465	-0.259084	0.107622	-0.753697	-0.245365	0.108760	-0.660381	-0.329692	0.086030	-0.711661	-0.158306	0.028935	-0.769530	-0.127470	0.043839	-0.689261	-0.101830	0.032364	-0.686397	
